<svg xmlns="http://www.w3.org/2000/svg" width="22.23" height="26.688" viewBox="0 0 22.23 26.688">
  <g id="_09-timer" data-name="09-timer" transform="translate(-8)">
    <path id="Path_5723" data-name="Path 5723" d="M27.2,7.941l1.6-1.6L27.221,4.771,25.512,6.48A11.045,11.045,0,0,0,20.226,4.5V2.223h2.223V0H15.78V2.223H18V4.5A11.045,11.045,0,0,0,12.717,6.48L11.009,4.771,9.437,6.344l1.6,1.6a11.115,11.115,0,1,0,16.161,0ZM19.115,24.453a8.892,8.892,0,1,1,8.892-8.892A8.892,8.892,0,0,1,19.115,24.453Z" fill="#5b5b5b"/>
    <path id="Path_5724" data-name="Path 5724" d="M30.669,32v6.669H24A6.669,6.669,0,1,0,30.669,32Z" transform="translate(-11.554 -23.108)" fill="#5b5b5b"/>
  </g>
</svg>
