<svg xmlns="http://www.w3.org/2000/svg" width="34.652" height="34.651" viewBox="0 0 34.652 34.651">
  <g id="cancel_1_" data-name="cancel (1)" transform="translate(0 -0.005)">
    <g id="Group_5215" data-name="Group 5215" transform="translate(0 0.005)">
      <path id="Path_5734" data-name="Path 5734" d="M29.583,5.074a17.325,17.325,0,1,0,0,24.515A17.354,17.354,0,0,0,29.583,5.074ZM24.475,22.438a1.444,1.444,0,1,1-2.043,2.043l-5.106-5.108-5.1,5.106a1.444,1.444,0,0,1-2.043-2.043l5.1-5.106-5.106-5.106a1.444,1.444,0,0,1,2.043-2.043l5.106,5.106,5.106-5.106a1.444,1.444,0,1,1,2.043,2.043l-5.106,5.106Z" transform="translate(0 -0.005)" fill="#818488"/>
    </g>
  </g>
</svg>
