<svg id="language_1_" data-name="language (1)" xmlns="http://www.w3.org/2000/svg" width="26.246" height="26.246" viewBox="0 0 26.246 26.246">
  <g id="Group_5177" data-name="Group 5177" transform="translate(6.166 7.023)">
    <g id="Group_5176" data-name="Group 5176">
      <path id="Path_5706" data-name="Path 5706" d="M121.237,137h-.329l-.615,3.076h1.559Z" transform="translate(-120.293 -137)" fill="rgba(0,0,0,0.63)"/>
    </g>
  </g>
  <g id="Group_5179" data-name="Group 5179" transform="translate(19.551 13.174)">
    <g id="Group_5178" data-name="Group 5178">
      <path id="Path_5707" data-name="Path 5707" d="M381.374,257a8.036,8.036,0,0,0,1.262,2.228A8.116,8.116,0,0,0,383.95,257Z" transform="translate(-381.374 -257)" fill="rgba(0,0,0,0.63)"/>
    </g>
  </g>
  <g id="Group_5181" data-name="Group 5181" transform="translate(12.439 4.665)">
    <g id="Group_5180" data-name="Group 5180">
      <path id="Path_5708" data-name="Path 5708" d="M254.163,91h-9.549l1.991,15.977a2.387,2.387,0,0,1-.57,1.75l-3.372,3.854h11.5a2.309,2.309,0,0,0,2.307-2.307V93.358A2.354,2.354,0,0,0,254.163,91Zm0,8.509h-.205a9.757,9.757,0,0,1-1.852,3.368c.565.516,1.169.94,1.769,1.415a.769.769,0,1,1-.961,1.2c-.652-.515-1.265-.946-1.877-1.508-.612.562-1.174.993-1.826,1.508a.769.769,0,0,1-.961-1.2c.6-.474,1.153-.9,1.718-1.415a9.705,9.705,0,0,1-1.8-3.368h-.205a.769.769,0,0,1,0-1.538h2.307V97.2a.769.769,0,0,1,1.538,0v.769h2.358a.769.769,0,0,1,0,1.538Z" transform="translate(-242.663 -91)" fill="rgba(0,0,0,0.63)"/>
    </g>
  </g>
  <g id="Group_5183" data-name="Group 5183">
    <g id="Group_5182" data-name="Group 5182">
      <path id="Path_5709" data-name="Path 5709" d="M12.516,2.021A2.31,2.31,0,0,0,10.228,0H2.307A2.309,2.309,0,0,0,0,2.307V19.326a2.309,2.309,0,0,0,2.307,2.307H14.433c.224-.256.412-.417.42-.752C14.855,20.8,12.527,2.1,12.516,2.021ZM9.429,14.7a.769.769,0,0,1-.9-.6l-.491-2.458H5.859l-.491,2.458a.769.769,0,1,1-1.508-.3L5.4,6.1a.769.769,0,0,1,.754-.618H7.741a.769.769,0,0,1,.754.618l1.538,7.689A.769.769,0,0,1,9.429,14.7Z" fill="rgba(0,0,0,0.63)"/>
    </g>
  </g>
  <g id="Group_5185" data-name="Group 5185" transform="translate(8.984 23.17)">
    <g id="Group_5184" data-name="Group 5184">
      <path id="Path_5710" data-name="Path 5710" d="M175.261,452l.132,1.055a2.325,2.325,0,0,0,1.33,1.787L179.3,452Z" transform="translate(-175.261 -452)" fill="rgba(0,0,0,0.63)"/>
    </g>
  </g>
</svg>
