<svg xmlns="http://www.w3.org/2000/svg" width="26.999" height="27" viewBox="0 0 26.999 27">
  <g id="link" transform="translate(0 0)">
    <g id="Group_5210" data-name="Group 5210" transform="translate(9.079 0)">
      <g id="Group_5209" data-name="Group 5209" transform="translate(0 0)">
        <path id="Path_5732" data-name="Path 5732" d="M188.227,1.853a6.328,6.328,0,0,0-8.949,0l-5.289,5.289a6.388,6.388,0,0,0,0,8.949,6.022,6.022,0,0,0,1.272.965l.965-.965a2.174,2.174,0,0,0,.4-1.908,3.054,3.054,0,0,1-.4-.33,3.2,3.2,0,0,1,0-4.475l5.289-5.289a3.164,3.164,0,1,1,4.475,4.475l-3.5,3.5a9.107,9.107,0,0,1,.4,4.07c.015-.015.033-.025.049-.04l5.289-5.289A6.328,6.328,0,0,0,188.227,1.853Z" transform="translate(-172.159 0)" fill="#818488"/>
      </g>
    </g>
    <g id="Group_5212" data-name="Group 5212" transform="translate(0 9.533)">
      <g id="Group_5211" data-name="Group 5211" transform="translate(0)">
        <path id="Path_5733" data-name="Path 5733" d="M16.5,181.741a6.024,6.024,0,0,0-1.272-.965l-.965.965a2.173,2.173,0,0,0-.4,1.907,3.047,3.047,0,0,1,.4.33,3.2,3.2,0,0,1,0,4.475l-5.7,5.7a3.164,3.164,0,0,1-4.475-4.475L8,185.771a9.106,9.106,0,0,1-.4-4.07c-.015.015-.034.025-.049.04l-5.7,5.7a6.328,6.328,0,0,0,8.949,8.949l5.7-5.7A6.384,6.384,0,0,0,16.5,181.741Z" transform="translate(0 -180.776)" fill="#818488"/>
      </g>
    </g>
  </g>
</svg>
