<svg xmlns="http://www.w3.org/2000/svg" width="31.246" height="30.323" viewBox="0 0 31.246 30.323">
  <g id="password_2_" data-name="password (2)" transform="translate(0 -7.194)">
    <g id="Group_5190" data-name="Group 5190" transform="translate(0 7.194)">
      <path id="Path_5714" data-name="Path 5714" d="M15.869,352.251a.448.448,0,0,0-.61-.16l-1.117.648v-1.29a.443.443,0,1,0-.886,0v1.29l-1.117-.648a.446.446,0,0,0-.449.77l1.123.655-1.123.655a.446.446,0,0,0,.449.77l1.117-.648v1.29a.443.443,0,0,0,.886,0v-1.29l1.117.648a.446.446,0,0,0,.449-.77l-1.123-.655,1.123-.655A.444.444,0,0,0,15.869,352.251Z" transform="translate(-10.734 -328.938)" fill="#5b5b5b"/>
      <path id="Path_5715" data-name="Path 5715" d="M143.03,354.68a.448.448,0,0,0,.61.16l1.117-.648v1.29a.443.443,0,1,0,.886,0v-1.29l1.117.648a.446.446,0,1,0,.449-.77l-1.123-.655,1.123-.655a.446.446,0,1,0-.449-.77l-1.117.648v-1.29a.443.443,0,0,0-.886,0v1.29L143.64,352a.446.446,0,1,0-.449.77l1.123.655-1.123.648A.448.448,0,0,0,143.03,354.68Z" transform="translate(-133.794 -328.844)" fill="#5b5b5b"/>
      <path id="Path_5716" data-name="Path 5716" d="M131.5,457.146v.783a.342.342,0,0,0,.34.34H137.1a.342.342,0,0,0,.34-.34v-.783a.342.342,0,0,0-.34-.34H131.84A.338.338,0,0,0,131.5,457.146Z" transform="translate(-123.059 -427.947)" fill="#5b5b5b"/>
      <path id="Path_5717" data-name="Path 5717" d="M149.552,14.506h-.038V12.76A5.541,5.541,0,0,0,144,7.2a5.436,5.436,0,0,0-5.334,5.424v.167a.457.457,0,0,0,.456.456h1.457a.457.457,0,0,0,.456-.456v-.051a3.13,3.13,0,0,1,2.856-3.164,3.055,3.055,0,0,1,3.248,3.042V14.5h-4.493v.006h-4.153a1.432,1.432,0,0,0-1.393,1.425v7.895a1.433,1.433,0,0,0,1.431,1.431h11.014a1.433,1.433,0,0,0,1.431-1.431V15.937A1.423,1.423,0,0,0,149.552,14.506Zm-4.66,5.732a.308.308,0,0,0-.141.289c.006.578.006,1.155,0,1.739h0a.609.609,0,0,1-.327.584.678.678,0,0,1-1.014-.584V20.52a.3.3,0,0,0-.128-.276,1.319,1.319,0,0,1-.436-1.63,1.349,1.349,0,0,1,2.58.533A1.222,1.222,0,0,1,144.892,20.238Z" transform="translate(-128.3 -7.194)" fill="#5b5b5b"/>
      <path id="Path_5718" data-name="Path 5718" d="M262.9,457.146v.783a.342.342,0,0,0,.34.34H268.5a.342.342,0,0,0,.34-.34v-.783a.342.342,0,0,0-.34-.34H263.24A.342.342,0,0,0,262.9,457.146Z" transform="translate(-246.025 -427.947)" fill="#5b5b5b"/>
      <path id="Path_5719" data-name="Path 5719" d="M274.43,354.68a.448.448,0,0,0,.61.16l1.117-.648v1.29a.443.443,0,1,0,.886,0v-1.29l1.117.648a.446.446,0,0,0,.449-.77l-1.123-.655,1.123-.655a.446.446,0,0,0-.449-.77l-1.117.648v-1.29a.443.443,0,0,0-.886,0v1.29l-1.117-.648a.446.446,0,0,0-.449.77l1.123.655-1.123.655A.448.448,0,0,0,274.43,354.68Z" transform="translate(-256.759 -328.844)" fill="#5b5b5b"/>
      <path id="Path_5720" data-name="Path 5720" d="M399.9,456.806H394.64a.342.342,0,0,0-.34.34v.783a.342.342,0,0,0,.34.34H399.9a.342.342,0,0,0,.34-.34v-.783A.342.342,0,0,0,399.9,456.806Z" transform="translate(-368.991 -427.947)" fill="#5b5b5b"/>
      <path id="Path_5721" data-name="Path 5721" d="M.34,458.269H5.6a.342.342,0,0,0,.34-.34v-.783a.342.342,0,0,0-.34-.34H.34a.342.342,0,0,0-.34.34v.783A.342.342,0,0,0,.34,458.269Z" transform="translate(0 -427.947)" fill="#5b5b5b"/>
      <path id="Path_5722" data-name="Path 5722" d="M405.888,354.68a.448.448,0,0,0,.61.16l1.117-.648v1.29a.443.443,0,1,0,.886,0v-1.29l1.117.648a.446.446,0,1,0,.449-.77l-1.123-.655,1.123-.655a.446.446,0,0,0-.449-.77l-1.117.648v-1.29a.443.443,0,0,0-.886,0v1.29l-1.117-.648a.446.446,0,0,0-.449.77l1.123.655-1.123.655A.443.443,0,0,0,405.888,354.68Z" transform="translate(-379.777 -328.844)" fill="#5b5b5b"/>
    </g>
  </g>
</svg>
