<svg xmlns="http://www.w3.org/2000/svg" width="34.711" height="32.542" viewBox="0 0 34.711 32.542">
  <g id="video" transform="translate(0 -16)">
    <path id="Path_5730" data-name="Path 5730" d="M192.709,202.247l-10.169-6.1a1.017,1.017,0,0,0-1.54.872v12.2a1.017,1.017,0,0,0,1.54.872l10.169-6.1a1.017,1.017,0,0,0,0-1.744Zm-9.675,5.177v-8.611l7.176,4.305Z" transform="translate(-168.729 -167.797)" fill="#5b5b5b"/>
    <path id="Path_5731" data-name="Path 5731" d="M33.694,16H1.017A1.017,1.017,0,0,0,0,17.017V47.525a1.017,1.017,0,0,0,1.017,1.017H33.694a1.017,1.017,0,0,0,1.017-1.017V17.017A1.021,1.021,0,0,0,33.694,16ZM20.406,22.1l5.424-4.068h4.793L25.154,22.1Zm-8.135,0,5.424-4.068H22.44L17.016,22.1Zm-8.183,0,5.469-4.068H14.3L8.881,22.1Zm28.589-3.061V22.1H28.562ZM6.149,18.034,2.034,21.095V18.034ZM32.677,46.508H2.034V24.135H32.677Z" transform="translate(0 0)" fill="#5b5b5b"/>
  </g>
</svg>
